<svg width="36" height="36" viewBox="0 0 36 36" fill="none" xmlns="http://www.w3.org/2000/svg">
<path d="M4.5 13.5C4.5 12.7044 4.81607 11.9413 5.37868 11.3787C5.94129 10.8161 6.70435 10.5 7.5 10.5H28.5C29.2956 10.5 30.0587 10.8161 30.6213 11.3787C31.1839 11.9413 31.5 12.7044 31.5 13.5M4.5 16.5H9C10.2 16.5 11.4 16.95 12.15 17.85L13.8 19.2C16.2 21.6 19.95 21.6 22.35 19.2L24 17.85C24.75 17.1 25.95 16.5 27.15 16.5H31.5M7.5 4.5H28.5C30.1569 4.5 31.5 5.84315 31.5 7.5V28.5C31.5 30.1569 30.1569 31.5 28.5 31.5H7.5C5.84315 31.5 4.5 30.1569 4.5 28.5V7.5C4.5 5.84315 5.84315 4.5 7.5 4.5Z" stroke="#1D1D1B" stroke-width="2" stroke-linecap="round" stroke-linejoin="round"/>
</svg>
