<svg width="36" height="36" viewBox="0 0 36 36" fill="none" xmlns="http://www.w3.org/2000/svg">
<path d="M22.5 15L21.39 14.8155C21.3632 14.9767 21.3718 15.1417 21.4153 15.2992C21.4587 15.4567 21.536 15.6028 21.6416 15.7275C21.7472 15.8521 21.8787 15.9522 22.027 16.0209C22.1752 16.0895 22.3366 16.1251 22.5 16.125V15ZM6 15V13.875C5.70163 13.875 5.41548 13.9936 5.2045 14.2045C4.99353 14.4155 4.875 14.7017 4.875 15H6ZM9 31.125H26.04V28.875H9V31.125ZM27.84 13.875H22.5V16.125H27.84V13.875ZM23.61 15.1845L24.819 7.93204L22.599 7.56153L21.39 14.8155L23.61 15.1845ZM22.23 4.87504H21.909V7.12504H22.2285L22.23 4.87504ZM17.2275 7.38004L13.455 13.0395L15.327 14.2875L19.0995 8.62803L17.2275 7.38004ZM11.895 13.875H6V16.125H11.895V13.875ZM4.875 15V27H7.125V15H4.875ZM30.0855 27.81L31.8855 18.81L29.6805 18.3675L27.8805 27.3675L30.0855 27.81ZM13.455 13.0395C13.2839 13.2965 13.0519 13.5057 12.7798 13.6514C12.5076 13.7972 12.2037 13.8735 11.895 13.8735V16.1235C13.275 16.1235 14.562 15.435 15.327 14.2875L13.455 13.0395ZM24.819 7.93204C24.8815 7.55609 24.8614 7.16954 24.7601 6.80215C24.6587 6.43476 24.4786 6.09383 24.2323 5.80307C23.9859 5.51231 23.6792 5.27868 23.3334 5.11841C22.9876 4.95815 22.6111 4.8751 22.23 4.87504L22.2285 7.12504C22.2829 7.12517 22.3381 7.13712 22.3874 7.16007C22.4366 7.18302 22.4804 7.21642 22.5155 7.25794C22.5506 7.29946 22.5762 7.34812 22.5906 7.40054C22.6051 7.45297 22.6079 7.5079 22.599 7.56153L24.819 7.93204ZM27.84 16.1235C29.025 16.1235 29.91 17.2065 29.679 18.366L31.8855 18.8085C32.0049 18.2102 31.99 17.5913 31.842 16.9994C31.694 16.4074 31.4165 15.8557 31.0295 15.384C30.6426 14.9122 30.1558 14.5322 29.6043 14.2713C29.0527 14.0103 28.4501 13.875 27.84 13.875V16.1235ZM26.04 31.125C26.9936 31.1252 27.9177 30.7935 28.6553 30.1892C29.3929 29.5848 29.8983 28.7435 30.0855 27.8085L27.8805 27.366C27.7955 27.7914 27.5656 28.1742 27.23 28.4491C26.8944 28.724 26.4738 28.8755 26.04 28.875V31.125ZM21.909 4.87504C20.983 4.8751 20.0713 5.10228 19.2549 5.53927C18.4385 5.97625 17.7426 6.60803 17.229 7.37854L19.0995 8.62803C19.4078 8.16552 19.8256 7.78482 20.3157 7.52262C20.8058 7.26042 21.3531 7.12483 21.909 7.12504V4.87504ZM9 28.875C7.965 28.875 7.125 28.035 7.125 27H4.875C4.875 28.0941 5.3096 29.1433 6.08318 29.9169C6.85677 30.6904 7.90598 31.125 9 31.125V28.875Z" fill="black"/>
<path d="M12 15V30" stroke="black" stroke-width="1.5"/>
</svg>
