<svg width="36" height="36" viewBox="0 0 36 36" fill="none" xmlns="http://www.w3.org/2000/svg">
<path d="M33 18.75V8.25C33 7.45435 32.6839 6.69129 32.1213 6.12868C31.5587 5.56607 30.7956 5.25 30 5.25H6C5.20435 5.25 4.44129 5.56607 3.87868 6.12868C3.31607 6.69129 3 7.45435 3 8.25V26.25C3 27.9 4.35 29.25 6 29.25H18M33 9.75L19.545 18.3C19.0819 18.5901 18.5465 18.744 18 18.744C17.4535 18.744 16.9181 18.5901 16.455 18.3L3 9.75M24 27.75L27 30.75L33 24.75" stroke="#1D1D1B" stroke-width="2" stroke-linecap="round" stroke-linejoin="round"/>
</svg>
