<svg width="36" height="36" viewBox="0 0 36 36" fill="none" xmlns="http://www.w3.org/2000/svg">
<path d="M18 24H6C5.20435 24 4.44129 23.6839 3.87868 23.1213C3.31607 22.5587 3 21.7956 3 21V9C3 8.20435 3.31607 7.44129 3.87868 6.87868C4.44129 6.31607 5.20435 6 6 6H30C30.7956 6 31.5587 6.31607 32.1213 6.87868C32.6839 7.44129 33 8.20435 33 9V16.5M27 15H27.015M28.5 30V21M28.5 21L33 25.5M28.5 21L24 25.5M9 15H9.015M21 15C21 16.6569 19.6569 18 18 18C16.3431 18 15 16.6569 15 15C15 13.3431 16.3431 12 18 12C19.6569 12 21 13.3431 21 15Z" stroke="#1D1D1B" stroke-width="2" stroke-linecap="round" stroke-linejoin="round"/>
</svg>
