<svg width="32" height="31" viewBox="0 0 32 31" fill="none" xmlns="http://www.w3.org/2000/svg">
<path d="M15.1016 0.567C15.4691 -0.189001 16.5309 -0.189 16.8984 0.567001L21.0665 9.1421C21.2125 9.44231 21.4945 9.65039 21.8208 9.69853L31.1412 11.0736C31.9629 11.1948 32.291 12.2201 31.6964 12.8086L24.9521 19.4834C24.716 19.717 24.6083 20.0537 24.664 20.3837L26.2561 29.8086C26.3965 30.6396 25.5375 31.2732 24.8025 30.8809L16.4662 26.431C16.1743 26.2753 15.8257 26.2753 15.5338 26.431L7.19746 30.8809C6.46251 31.2732 5.60353 30.6396 5.74389 29.8086L7.336 20.3837C7.39173 20.0537 7.28399 19.717 7.04788 19.4834L0.303628 12.8086C-0.290961 12.2201 0.0371418 11.1948 0.858844 11.0736L10.1792 9.69853C10.5055 9.65039 10.7875 9.44231 10.9335 9.1421L15.1016 0.567Z" fill="white"/>
<path d="M15.1016 0.567C15.4691 -0.189001 16.5309 -0.189 16.8984 0.567001L21.0665 9.1421C21.2125 9.44231 21.4945 9.65039 21.8208 9.69853L31.1412 11.0736C31.9629 11.1948 32.291 12.2201 31.6964 12.8086L24.9521 19.4834C24.716 19.717 24.6083 20.0537 24.664 20.3837L26.2561 29.8086C26.3876 30.5875 25.641 31.1927 24.9417 30.9423L24.8025 30.8809L16.4662 26.431C16.1743 26.2753 15.8257 26.2753 15.5338 26.431L7.19746 30.8809C6.46251 31.2732 5.60353 30.6396 5.74389 29.8086L7.336 20.3837C7.38476 20.095 7.30828 19.8012 7.13029 19.5757L7.04788 19.4834L0.303628 12.8086C-0.290961 12.2201 0.0371418 11.1948 0.858844 11.0736L10.1792 9.69853C10.5055 9.65039 10.7875 9.44231 10.9335 9.1421L15.1016 0.567ZM13.6283 10.4928C13.0446 11.6936 11.9163 12.5262 10.6112 12.7188L5.30767 13.5005L9.14564 17.298C10.0901 18.2327 10.5211 19.58 10.2981 20.8998L9.3912 26.2608L14.1351 23.7298L14.3562 23.6205C15.4756 23.1093 16.77 23.1456 17.8645 23.7298L22.6074 26.2608L21.7015 20.8998C21.4785 19.58 21.9095 18.2327 22.854 17.298L26.6909 13.5005L21.3884 12.7188C20.0833 12.5262 18.955 11.6936 18.3713 10.4928L15.9998 5.61357L13.6283 10.4928Z" fill="#1D1D1B"/>
</svg>
