<svg width="2416" height="974" viewBox="0 0 2416 974" fill="none" xmlns="http://www.w3.org/2000/svg">
<path d="M647.5 487C647.5 631.34 710.167 761.027 809.749 850.289C723.856 926.927 610.612 973.5 486.5 973.5C218.09 973.5 0.5 755.687 0.5 487C0.5 218.313 218.09 0.5 486.5 0.5C610.612 0.5 723.857 47.072 809.749 123.709C710.166 212.971 647.5 342.66 647.5 487ZM648.5 487C648.5 342.915 711.073 213.461 810.5 124.38C909.927 213.461 972.5 342.915 972.5 487C972.5 631.084 909.926 760.538 810.5 849.619C711.073 760.538 648.5 631.085 648.5 487ZM973.5 487C973.5 342.66 910.833 212.971 811.25 123.709C897.142 47.0717 1010.39 0.5 1134.5 0.5C1298.41 0.5 1443.36 81.7232 1531.39 206.153C1475.39 285.544 1442.5 382.427 1442.5 487C1442.5 591.573 1475.39 688.455 1531.39 767.846C1443.36 892.276 1298.41 973.5 1134.5 973.5C1010.39 973.5 897.143 926.927 811.25 850.289C910.833 761.027 973.5 631.34 973.5 487ZM1443.5 487C1443.5 382.769 1476.25 286.194 1532 207.021C1587.75 286.194 1620.5 382.769 1620.5 487C1620.5 591.231 1587.75 687.805 1532 766.979C1476.25 687.805 1443.5 591.231 1443.5 487ZM1621.5 487C1621.5 382.426 1588.61 285.544 1532.61 206.153C1620.64 81.7229 1765.59 0.5 1929.5 0.5C2197.91 0.5 2415.5 218.313 2415.5 487C2415.5 755.687 2197.91 973.5 1929.5 973.5C1765.59 973.5 1620.64 892.276 1532.61 767.846C1588.6 688.455 1621.5 591.573 1621.5 487Z" stroke="#DFDFDF"/>
</svg>
