<svg width="227" height="24" viewBox="0 0 227 24" fill="none" xmlns="http://www.w3.org/2000/svg">
<path d="M12.4394 0C14.2294 0 15.7248 0.19917 16.9257 0.597509C18.1493 0.995849 19.0669 1.59336 19.6787 2.39004C20.3131 3.16459 20.6303 4.14938 20.6303 5.3444C20.6303 6.31812 20.3924 7.15906 19.9166 7.86722C19.4634 8.55325 18.863 9.11757 18.1153 9.56017C17.3902 10.0028 16.5858 10.3458 15.7022 10.5892C14.8185 10.8105 13.9575 10.9433 13.1191 10.9876V11.2199C14.2067 11.2642 15.2603 11.397 16.2799 11.6183C17.3222 11.8174 18.2512 12.1494 19.0669 12.6141C19.9053 13.0788 20.5624 13.6874 21.0382 14.4398C21.5367 15.1923 21.7859 16.1106 21.7859 17.195C21.7859 18.2573 21.582 19.1978 21.1741 20.0166C20.7663 20.8133 20.1658 21.4661 19.3728 21.9751C18.5798 22.4841 17.5828 22.8714 16.3819 23.1369C15.2037 23.3804 13.8329 23.5021 12.2694 23.5021H0V23.1701L1.97127 22.6722V0.829875L0 0.33195V0H12.4394ZM11.3178 0.531119C10.2982 0.531119 9.42583 0.553249 8.70076 0.597509C7.9757 0.61964 7.39792 0.6639 6.96741 0.730289V22.7718C7.69247 22.9488 9.15393 23.0373 11.3518 23.0373C12.4847 23.0373 13.4817 22.8382 14.3427 22.4398C15.2263 22.0194 15.9061 21.3665 16.3819 20.4813C16.8577 19.574 17.0956 18.379 17.0956 16.8963C17.0956 15.0152 16.6085 13.6321 15.6342 12.7469C14.6599 11.8617 13.1305 11.4191 11.0459 11.4191L6.7295 11.3195V10.9876L11.0459 10.888C12.2015 10.8658 13.1531 10.6445 13.9008 10.2241C14.6712 9.78147 15.249 9.15076 15.6342 8.33195C16.042 7.51314 16.246 6.51729 16.246 5.3444C16.246 3.81743 15.8268 2.63347 14.9884 1.79253C14.1501 0.95159 12.9265 0.531119 11.3178 0.531119Z" fill="white"/>
<path d="M44.5734 24C43.8483 24 43.1572 23.823 42.5001 23.4689C41.8657 23.1148 41.2539 22.5837 40.6648 21.8755C40.0984 21.1674 39.5432 20.2822 38.9994 19.2199C38.365 17.9142 37.6853 16.6528 36.9602 15.4357C36.2351 14.1964 35.4421 13.0235 34.5811 11.917H31.7941V22.7718L33.7654 23.1701V23.5021H24.8267V23.1701L26.798 22.7718V0.730289L24.8267 0.33195V0H37.47C39.26 0 40.7668 0.210235 41.9903 0.630705C43.2365 1.02905 44.1655 1.63762 44.7773 2.45643C45.3891 3.27524 45.6949 4.30429 45.6949 5.54357C45.6949 6.71646 45.3098 7.7455 44.5394 8.6307C43.7917 9.51591 42.6814 10.213 41.2086 10.722C39.7358 11.231 37.9345 11.5297 35.8046 11.6183V11.8838C36.711 11.9281 37.5266 12.0609 38.2517 12.2822C38.9768 12.4813 39.6339 12.769 40.223 13.1452C40.8121 13.5214 41.3219 13.9972 41.7524 14.5726C42.2056 15.1259 42.6021 15.7787 42.942 16.5311C43.5311 17.8589 44.0522 18.9654 44.5054 19.8506C44.9586 20.7358 45.3551 21.4219 45.6949 21.9087C46.0575 22.3734 46.3634 22.6501 46.6126 22.7386C46.8618 22.8492 47.0998 22.8714 47.3263 22.805V23.1369C47.0544 23.3582 46.7486 23.5242 46.4087 23.6349C46.0915 23.7676 45.7629 23.8562 45.423 23.9004C45.1058 23.9668 44.8226 24 44.5734 24ZM34.3092 11.2199C35.3515 11.2199 36.2804 11.0982 37.0961 10.8548C37.9118 10.5892 38.6029 10.2241 39.1694 9.75933C39.7358 9.27248 40.1663 8.68603 40.4609 8C40.7554 7.31397 40.9027 6.52835 40.9027 5.64315C40.9027 4.53665 40.6988 3.60719 40.291 2.85477C39.8831 2.10235 39.2827 1.52697 38.4896 1.12863C37.7192 0.73029 36.7676 0.531119 35.6347 0.531119C34.819 0.531119 34.0939 0.542184 33.4595 0.564314C32.8477 0.586444 32.2926 0.641769 31.7941 0.730289V11.0539C32.066 11.1203 32.3832 11.1646 32.7458 11.1867C33.131 11.2089 33.6521 11.2199 34.3092 11.2199Z" fill="white"/>
<path d="M47.8664 23.5021V23.1701L49.9057 22.7718L59.1502 0H62.345L71.3857 22.7718L73.3569 23.1701V23.5021H63.6366V23.2697L66.0497 22.805L58.5045 3.75104H58.1306L54.9018 12.1826C54.4033 13.3776 54.0181 14.5284 53.7462 15.6349C53.497 16.7414 53.3724 17.704 53.3724 18.5228C53.3724 19.408 53.531 20.2047 53.8482 20.9129C54.1654 21.621 54.6639 22.1743 55.3436 22.5726C56.0234 22.971 56.9071 23.1701 57.9947 23.1701V23.5021H47.8664ZM53.6783 13.9751V13.6432L62.7529 13.1784V13.9751H53.6783Z" fill="white"/>
<path d="M75.004 23.5021V23.1701L77.3831 22.7718V3.12033C77.3831 2.58921 77.1679 2.08022 76.7374 1.59336C76.3068 1.08437 75.7291 0.6639 75.004 0.33195V0H81.4956L95.7703 17.9585H96.2801V9.89211C96.2801 9.02904 96.2008 8.19917 96.0422 7.40249C95.8836 6.58368 95.6343 5.80913 95.2944 5.07884C94.9772 4.34855 94.5694 3.68465 94.0709 3.08714C93.5951 2.4675 93.0173 1.92531 92.3376 1.46058C91.6805 0.995849 90.9327 0.619639 90.0944 0.33195V0H99.4409V0.33195L96.7899 0.730289V23.5021H94.1049L78.3348 3.78423H77.8929V11.4523C77.8929 12.5367 77.9722 13.5657 78.1308 14.5394C78.2894 15.5131 78.5387 16.4315 78.8786 17.2946C79.2411 18.1355 79.6943 18.9212 80.2381 19.6515C80.7819 20.3817 81.4389 21.0456 82.2093 21.6432C83.0024 22.2185 83.9087 22.7275 84.9283 23.1701V23.5021H75.004Z" fill="white"/>
<path d="M113.793 0C116.059 0 118.03 0.4426 119.707 1.3278C121.406 2.19087 122.72 3.48548 123.649 5.21162C124.601 6.91563 125.077 9.04011 125.077 11.5851C125.077 14.1521 124.612 16.3209 123.683 18.0913C122.777 19.8617 121.485 21.2116 119.809 22.1411C118.132 23.0484 116.149 23.5021 113.861 23.5021H101.829V23.1701L103.801 22.7718V0.630705L101.829 0.33195V0H113.793ZM112.637 0.531119C111.912 0.531119 111.199 0.553249 110.496 0.597509C109.816 0.61964 109.25 0.6639 108.797 0.730289V22.3403L109.476 23.0042H112.705C115.152 23.0042 116.976 22.0083 118.177 20.0166C119.401 18.0028 120.013 15.0927 120.013 11.2863C120.013 9.00692 119.741 7.07054 119.197 5.47718C118.653 3.88382 117.826 2.66667 116.716 1.82572C115.628 0.962654 114.269 0.531119 112.637 0.531119Z" fill="white"/>
<path d="M128.076 23.5021V23.1701L130.659 22.7718V0.763484L128.246 0.33195V0H135.485L144.356 19.2531L143.88 18.6888H144.934L144.56 19.2531L151.119 0H158.257V0.33195L156.252 0.730289V22.7718L158.257 23.1701V23.5021H149.08V23.1701L151.289 22.7718V3.58506H150.78L143.88 23.5021H140.855L131.713 4.08299H131.169V11.1535C131.169 12.0166 131.226 12.9571 131.339 13.9751C131.475 14.971 131.667 15.9779 131.917 16.9958C132.189 17.9917 132.551 18.9212 133.004 19.7842C133.457 20.6473 134.013 21.3776 134.67 21.9751C135.327 22.5726 136.097 22.971 136.981 23.1701V23.5021H128.076Z" fill="white"/>
<path d="M159.454 23.5021V23.1701L161.493 22.7718L170.738 0H173.932L182.973 22.7718L184.944 23.1701V23.5021H175.224V23.2697L177.637 22.805L170.092 3.75104H169.718L166.489 12.1826C165.991 13.3776 165.606 14.5284 165.334 15.6349C165.084 16.7414 164.96 17.704 164.96 18.5228C164.96 19.408 165.118 20.2047 165.436 20.9129C165.753 21.621 166.251 22.1743 166.931 22.5726C167.611 22.971 168.494 23.1701 169.582 23.1701V23.5021H159.454ZM165.266 13.9751V13.6432L174.34 13.1784V13.9751H165.266Z" fill="white"/>
<path d="M186.897 23.5021V23.1701L188.869 22.8382V0.6639L186.897 0.33195V0H195.87V0.33195L193.865 0.6639V23.0042H199.473C200.016 23.0042 200.504 22.8603 200.934 22.5726C201.365 22.2628 201.75 21.7759 202.09 21.112C202.452 20.426 202.792 19.5408 203.109 18.4564L203.993 14.2739H204.605L205.658 23.5021H186.897Z" fill="white"/>
<path d="M208.239 23.5021V23.1701L210.21 22.8382V0.6639L208.239 0.33195V0H217.212V0.33195L215.206 0.6639V23.0042H220.814C221.358 23.0042 221.845 22.8603 222.276 22.5726C222.706 22.2628 223.091 21.7759 223.431 21.112C223.794 20.426 224.134 19.5408 224.451 18.4564L225.335 14.2739H225.946L227 23.5021H208.239Z" fill="white"/>
</svg>
