<svg width="1097" height="119" viewBox="0 0 1097 119" fill="none" xmlns="http://www.w3.org/2000/svg">
<path d="M60.5529 0C69.2663 0 76.5459 0.987549 82.3917 2.96265C88.3477 4.93775 92.8147 7.90041 95.7927 11.8506C98.881 15.6911 100.425 20.574 100.425 26.4993C100.425 31.3273 99.2671 35.497 96.9508 39.0083C94.7449 42.4099 91.822 45.2079 88.1822 47.4025C84.6527 49.5971 80.7372 51.2978 76.4356 52.5048C72.1341 53.6021 67.9428 54.2605 63.8618 54.4799V55.6321C69.1561 55.8515 74.2849 56.5099 79.2482 57.6072C84.3219 58.5947 88.844 60.2407 92.8147 62.545C96.8957 64.8492 100.094 67.8668 102.411 71.5975C104.837 75.3283 106.05 79.882 106.05 85.2586C106.05 90.5256 105.058 95.189 103.072 99.249C101.087 103.199 98.1641 106.436 94.3037 108.96C90.4433 111.484 85.5903 113.404 79.7445 114.721C74.0091 115.928 67.3362 116.531 59.7257 116.531H0V114.885L9.59581 112.416V4.1148L0 1.64592V0H60.5529ZM55.0932 2.63347C50.1299 2.63347 45.8834 2.74319 42.3539 2.96265C38.8245 3.07238 36.0119 3.29184 33.9162 3.62102V112.91C37.4457 113.788 44.5599 114.227 55.2587 114.227C60.7735 114.227 65.6266 113.239 69.8178 111.264C74.1194 109.179 77.4283 105.942 79.7445 101.553C82.0608 97.0544 83.2189 91.1291 83.2189 83.7773C83.2189 74.4504 80.8475 67.5924 76.1047 63.2033C71.362 58.8142 63.917 56.6196 53.7697 56.6196L32.7581 56.1259V54.4799L53.7697 53.9862C59.3948 53.8764 64.0272 52.7792 67.667 50.6943C71.4171 48.4998 74.2297 45.3725 76.1047 41.3126C78.0901 37.2526 79.0828 32.3149 79.0828 26.4993C79.0828 18.9281 77.0423 13.0576 72.9613 8.88796C68.8803 4.7183 62.9243 2.63347 55.0932 2.63347Z" fill="#DFDFDF"/>
<path d="M216.976 119C213.447 119 210.083 118.122 206.884 116.367C203.796 114.611 200.818 111.977 197.95 108.466C195.192 104.955 192.49 100.566 189.843 95.2988C186.755 88.8248 183.446 82.5703 179.916 76.5353C176.387 70.3905 172.526 64.5749 168.335 59.0885H154.769V112.91L164.365 114.885V116.531H120.852V114.885L130.448 112.91V3.62102L120.852 1.64592V0H182.398C191.111 0 198.446 1.04242 204.402 3.12725C210.469 5.10235 214.991 8.11987 217.969 12.1798C220.947 16.2397 222.436 21.3421 222.436 27.4869C222.436 33.3024 220.561 38.4048 216.811 42.7939C213.171 47.183 207.766 50.6395 200.597 53.1632C193.428 55.687 184.659 57.1683 174.291 57.6072V58.9239C178.703 59.1434 182.674 59.8018 186.203 60.899C189.733 61.8866 192.931 63.313 195.799 65.1784C198.667 67.0438 201.148 69.4029 203.244 72.2559C205.45 74.9991 207.38 78.2361 209.035 81.9668C211.902 88.5505 214.439 94.0369 216.645 98.426C218.851 102.815 220.781 106.217 222.436 108.631C224.201 110.935 225.69 112.307 226.903 112.746C228.116 113.294 229.274 113.404 230.377 113.075V114.721C229.054 115.818 227.565 116.641 225.91 117.189C224.366 117.848 222.767 118.287 221.112 118.506C219.568 118.835 218.189 119 216.976 119ZM167.012 55.6321C172.085 55.6321 176.607 55.0286 180.578 53.8216C184.549 52.5048 187.913 50.6943 190.67 48.39C193.428 45.976 195.523 43.0682 196.957 39.6667C198.391 36.2651 199.108 32.3698 199.108 27.9806C199.108 22.4942 198.115 17.8857 196.13 14.1549C194.145 10.4242 191.222 7.57123 187.361 5.59612C183.611 3.62102 178.979 2.63347 173.464 2.63347C169.493 2.63347 165.964 2.68833 162.876 2.79806C159.898 2.90778 157.195 3.1821 154.769 3.62102V54.8091C156.092 55.1383 157.636 55.3578 159.401 55.4675C161.276 55.5772 163.813 55.6321 167.012 55.6321Z" fill="#DFDFDF"/>
<path d="M233.006 116.531V114.885L242.933 112.91L287.934 0H303.486L347.494 112.91L357.09 114.885V116.531H309.773V115.379L321.519 113.075L284.79 18.5989H282.971L267.253 60.4053C264.827 66.3306 262.952 72.0364 261.628 77.5228C260.415 83.0092 259.808 87.7824 259.808 91.8423C259.808 96.2314 260.58 100.182 262.124 103.693C263.669 107.204 266.095 109.947 269.404 111.923C272.713 113.898 277.015 114.885 282.309 114.885V116.531H233.006ZM261.297 69.2932V67.6473L305.471 65.343V69.2932H261.297Z" fill="#DFDFDF"/>
<path d="M365.108 116.531V114.885L376.689 112.91V15.4716C376.689 12.8382 375.641 10.3144 373.545 7.90041C371.45 5.37667 368.637 3.29184 365.108 1.64592V0H396.708L466.195 89.0443H468.676V49.0484C468.676 44.769 468.29 40.6542 467.518 36.704C466.746 32.6441 465.533 28.8036 463.878 25.1826C462.334 21.5616 460.349 18.2697 457.922 15.3071C455.606 12.2347 452.793 9.54633 449.485 7.24204C446.286 4.93775 442.646 3.07238 438.565 1.64592V0H484.063V1.64592L471.158 3.62102V116.531H458.088L381.321 18.7635H379.17V56.7842C379.17 62.1609 379.556 67.2633 380.329 72.0913C381.101 76.9193 382.314 81.473 383.968 85.7524C385.733 89.9221 387.939 93.8174 390.586 97.4385C393.233 101.059 396.432 104.351 400.182 107.314C404.042 110.167 408.454 112.691 413.418 114.885V116.531H365.108Z" fill="#DFDFDF"/>
<path d="M553.926 0C564.955 0 574.551 2.19456 582.713 6.58367C590.985 10.8631 597.383 17.2822 601.905 25.8409C606.537 34.29 608.853 44.8239 608.853 57.4426C608.853 70.1711 606.592 80.9244 602.07 89.7026C597.658 98.4809 591.371 105.174 583.209 109.783C575.047 114.282 565.397 116.531 554.257 116.531H495.689V114.885L505.285 112.91V3.12725L495.689 1.64592V0H553.926ZM548.301 2.63347C544.771 2.63347 541.297 2.74319 537.878 2.96265C534.569 3.07238 531.811 3.29184 529.605 3.62102V110.77L532.914 114.062H548.631C560.544 114.062 569.422 109.124 575.268 99.249C581.224 89.2637 584.202 74.8345 584.202 55.9613C584.202 44.6593 582.879 35.0581 580.231 27.1577C577.584 19.2573 573.558 13.2222 568.154 9.05255C562.86 4.77316 556.242 2.63347 548.301 2.63347Z" fill="#DFDFDF"/>
<path d="M615 116.531V114.885L627.574 112.91V3.78561L615.827 1.64592V0H651.067L694.248 95.4633L691.932 92.6653H697.061L695.241 95.4633L727.172 0H761.915V1.64592L752.154 3.62102V112.91L761.915 114.885V116.531H717.245V114.885L727.999 112.91V17.7759H725.517L691.932 116.531H677.207L632.703 20.2448H630.056V55.3029C630.056 59.5823 630.331 64.2457 630.883 69.2932C631.545 74.231 632.482 79.2236 633.695 84.2711C635.019 89.2089 636.784 93.8174 638.99 98.0968C641.195 102.376 643.898 105.997 647.096 108.96C650.295 111.923 654.045 113.898 658.347 114.885V116.531H615Z" fill="#DFDFDF"/>
<path d="M767.742 116.531V114.885L777.669 112.91L822.67 0H838.222L882.23 112.91L891.826 114.885V116.531H844.509V115.379L856.255 113.075L819.526 18.5989H817.706L801.989 60.4053C799.563 66.3306 797.688 72.0364 796.364 77.5228C795.151 83.0092 794.544 87.7824 794.544 91.8423C794.544 96.2314 795.316 100.182 796.86 103.693C798.405 107.204 800.831 109.947 804.14 111.923C807.449 113.898 811.75 114.885 817.045 114.885V116.531H767.742ZM796.033 69.2932V67.6473L840.207 65.343V69.2932H796.033Z" fill="#DFDFDF"/>
<path d="M901.333 116.531V114.885L910.928 113.239V3.29184L901.333 1.64592V0H945.01V1.64592L935.249 3.29184V114.062H962.547C965.194 114.062 967.566 113.349 969.661 111.923C971.757 110.386 973.632 107.972 975.286 104.681C977.051 101.279 978.706 96.8898 980.25 91.5131L984.551 70.7746H987.529L992.658 116.531H901.333Z" fill="#DFDFDF"/>
<path d="M1005.22 116.531V114.885L1014.82 113.239V3.29184L1005.22 1.64592V0H1048.9V1.64592L1039.14 3.29184V114.062H1066.44C1069.08 114.062 1071.45 113.349 1073.55 111.923C1075.64 110.386 1077.52 107.972 1079.17 104.681C1080.94 101.279 1082.59 96.8898 1084.14 91.5131L1088.44 70.7746H1091.42L1096.55 116.531H1005.22Z" fill="#DFDFDF"/>
</svg>
