<svg width="240" height="26" viewBox="0 0 240 26" fill="none" xmlns="http://www.w3.org/2000/svg">
<path d="M13.1518 0C15.0443 0 16.6254 0.215767 17.895 0.647301C19.1886 1.07884 20.1588 1.72614 20.8057 2.58921C21.4764 3.42831 21.8118 4.49516 21.8118 5.78976C21.8118 6.84463 21.5603 7.75565 21.0572 8.52282C20.5781 9.26602 19.9432 9.87736 19.1527 10.3568C18.3861 10.8363 17.5357 11.2079 16.6014 11.4716C15.6671 11.7114 14.7568 11.8552 13.8704 11.9032V12.1549C15.0203 12.2029 16.1343 12.3467 17.2123 12.5864C18.3142 12.8022 19.2964 13.1618 20.1588 13.6653C21.0452 14.1687 21.7399 14.828 22.243 15.6432C22.77 16.4583 23.0335 17.4532 23.0335 18.6279C23.0335 19.7787 22.8179 20.7976 22.3867 21.6846C21.9555 22.5477 21.3207 23.255 20.4823 23.8064C19.6438 24.3578 18.5897 24.7773 17.3201 25.065C16.0744 25.3287 14.625 25.4606 12.9721 25.4606H0V25.101L2.08416 24.5615V0.899031L0 0.359612V0H13.1518ZM11.9659 0.575379C10.8879 0.575379 9.96563 0.599353 9.19905 0.647301C8.43246 0.671276 7.82159 0.719225 7.36642 0.791146V24.6694C8.13301 24.8612 9.67816 24.9571 12.0019 24.9571C13.1997 24.9571 14.2537 24.7414 15.1641 24.3098C16.0983 23.8543 16.817 23.1471 17.3201 22.1881C17.8232 21.2052 18.0747 19.9106 18.0747 18.3043C18.0747 16.2665 17.5596 14.7681 16.5295 13.8091C15.4994 12.8502 13.8824 12.3707 11.6785 12.3707L7.11489 12.2628V11.9032L11.6785 11.7953C12.9002 11.7713 13.9064 11.5316 14.6969 11.0761C15.5114 10.5966 16.1223 9.91332 16.5295 9.02628C16.9607 8.13923 17.1763 7.0604 17.1763 5.78976C17.1763 4.13554 16.7332 2.85293 15.8468 1.94191C14.9604 1.03089 13.6668 0.575379 11.9659 0.575379Z" fill="#1D1D1B"/>
<path d="M47.126 26C46.3594 26 45.6288 25.8082 44.9341 25.4246C44.2633 25.041 43.6165 24.4657 42.9936 23.6985C42.3947 22.9313 41.8078 21.9723 41.2329 20.8216C40.5621 19.4071 39.8434 18.0406 39.0769 16.722C38.3103 15.3794 37.4718 14.1088 36.5615 12.9101H33.6149V24.6694L35.6991 25.101V25.4606H26.2485V25.101L28.3327 24.6694V0.791146L26.2485 0.359612V0H39.6159C41.5084 0 43.1014 0.227755 44.3951 0.683264C45.7126 1.1148 46.6948 1.77409 47.3416 2.66113C47.9884 3.54818 48.3118 4.66298 48.3118 6.00553C48.3118 7.27616 47.9046 8.39096 47.0901 9.34993C46.2995 10.3089 45.1257 11.0641 43.5686 11.6155C42.0114 12.1669 40.107 12.4905 37.8551 12.5864V12.8741C38.8133 12.9221 39.6758 13.0659 40.4423 13.3057C41.2089 13.5214 41.9036 13.8331 42.5265 14.2407C43.1493 14.6482 43.6884 15.1637 44.1435 15.787C44.6226 16.3864 45.0419 17.0936 45.4012 17.9087C46.0241 19.3472 46.575 20.5459 47.0542 21.5048C47.5333 22.4638 47.9525 23.207 48.3118 23.7344C48.6951 24.2379 49.0185 24.5376 49.282 24.6335C49.5456 24.7533 49.7971 24.7773 50.0367 24.7054V25.065C49.7492 25.3048 49.4258 25.4846 49.0664 25.6044C48.7311 25.7483 48.3837 25.8442 48.0244 25.8921C47.689 25.964 47.3895 26 47.126 26ZM36.274 12.1549C37.376 12.1549 38.3582 12.0231 39.2206 11.7593C40.083 11.4716 40.8137 11.0761 41.4126 10.5726C42.0114 10.0452 42.4666 9.40987 42.778 8.66667C43.0895 7.92347 43.2452 7.07238 43.2452 6.11341C43.2452 4.91471 43.0296 3.90779 42.5984 3.09267C42.1672 2.27755 41.5323 1.65422 40.6939 1.22268C39.8794 0.791147 38.8732 0.575379 37.6754 0.575379C36.813 0.575379 36.0464 0.587366 35.3757 0.61134C34.7289 0.635314 34.142 0.695249 33.6149 0.791146V11.9751C33.9024 12.047 34.2378 12.095 34.6211 12.1189C35.0283 12.1429 35.5793 12.1549 36.274 12.1549Z" fill="#1D1D1B"/>
<path d="M50.6077 25.4606V25.101L52.7637 24.6694L62.5377 0H65.9155L75.4738 24.6694L77.558 25.101V25.4606H67.2809V25.2089L69.8322 24.7054L61.8549 4.06362H61.4597L58.046 13.1978C57.5189 14.4924 57.1117 15.739 56.8242 16.9378C56.5607 18.1365 56.4289 19.1793 56.4289 20.0664C56.4289 21.0254 56.5966 21.8884 56.932 22.6556C57.2674 23.4228 57.7944 24.0221 58.5131 24.4537C59.2318 24.8852 60.1661 25.101 61.3159 25.101V25.4606H50.6077ZM56.7523 15.1397V14.7801L66.3467 14.2766V15.1397H56.7523Z" fill="#1D1D1B"/>
<path d="M79.2994 25.4606V25.101L81.8147 24.6694V3.38036C81.8147 2.80498 81.5872 2.25357 81.132 1.72614C80.6768 1.17473 80.066 0.719225 79.2994 0.359612V0H86.1627L101.255 19.455H101.794V10.7165C101.794 9.78146 101.71 8.88243 101.542 8.01936C101.375 7.13232 101.111 6.29322 100.752 5.50207C100.416 4.71093 99.9853 3.9917 99.4582 3.3444C98.9552 2.67312 98.3443 2.08575 97.6256 1.58229C96.9309 1.07884 96.1403 0.671276 95.254 0.359612V0H105.136V0.359612L102.333 0.791146V25.4606H99.4942L82.8209 4.09958H82.3538V12.4066C82.3538 13.5814 82.4376 14.6962 82.6053 15.751C82.773 16.8059 83.0365 17.8008 83.3958 18.7358C83.7791 19.6468 84.2582 20.4979 84.8332 21.2891C85.4081 22.0802 86.1028 22.7994 86.9173 23.4468C87.7558 24.0701 88.714 24.6215 89.792 25.101V25.4606H79.2994Z" fill="#1D1D1B"/>
<path d="M120.31 0C122.705 0 124.789 0.479483 126.562 1.43845C128.359 2.37344 129.748 3.77593 130.73 5.64592C131.737 7.49193 132.24 9.79345 132.24 12.5505C132.24 15.3315 131.749 17.681 130.766 19.5989C129.808 21.5168 128.443 22.9793 126.67 23.9862C124.897 24.9691 122.801 25.4606 120.382 25.4606H107.661V25.101L109.745 24.6694V0.683264L107.661 0.359612V0H120.31ZM119.088 0.575379C118.321 0.575379 117.567 0.599353 116.824 0.647301C116.105 0.671276 115.506 0.719225 115.027 0.791146V24.2019L115.746 24.9212H119.16C121.747 24.9212 123.675 23.8423 124.945 21.6846C126.239 19.503 126.886 16.3504 126.886 12.2268C126.886 9.75749 126.598 7.65975 126.023 5.93361C125.448 4.20747 124.574 2.88889 123.4 1.97787C122.25 1.04288 120.813 0.575379 119.088 0.575379Z" fill="#1D1D1B"/>
<path d="M135.411 25.4606V25.101L138.142 24.6694V0.827107L135.59 0.359612V0H143.244L152.623 20.8575L152.12 20.2462H153.234L152.839 20.8575L159.774 0H167.32V0.359612L165.2 0.791146V24.6694L167.32 25.101V25.4606H157.618V25.101L159.954 24.6694V3.88382H159.415L152.12 25.4606H148.922L139.256 4.42323H138.681V12.083C138.681 13.018 138.741 14.0369 138.86 15.1397C139.004 16.2185 139.208 17.3094 139.471 18.4122C139.759 19.491 140.142 20.4979 140.621 21.4329C141.1 22.3679 141.687 23.1591 142.382 23.8064C143.077 24.4537 143.891 24.8852 144.825 25.101V25.4606H135.411Z" fill="#1D1D1B"/>
<path d="M168.586 25.4606V25.101L170.742 24.6694L180.516 0H183.893L193.452 24.6694L195.536 25.101V25.4606H185.259V25.2089L187.81 24.7054L179.833 4.06362H179.438L176.024 13.1978C175.497 14.4924 175.09 15.739 174.802 16.9378C174.539 18.1365 174.407 19.1793 174.407 20.0664C174.407 21.0254 174.575 21.8884 174.91 22.6556C175.245 23.4228 175.772 24.0221 176.491 24.4537C177.21 24.8852 178.144 25.101 179.294 25.101V25.4606H168.586ZM174.73 15.1397V14.7801L184.325 14.2766V15.1397H174.73Z" fill="#1D1D1B"/>
<path d="M197.601 25.4606V25.101L199.685 24.7414V0.719225L197.601 0.359612V0H207.087V0.359612L204.967 0.719225V24.9212H210.896C211.471 24.9212 211.986 24.7653 212.441 24.4537C212.896 24.118 213.304 23.5906 213.663 22.8714C214.046 22.1282 214.406 21.1692 214.741 19.9945L215.675 15.4633H216.322L217.436 25.4606H197.601Z" fill="#1D1D1B"/>
<path d="M220.165 25.4606V25.101L222.249 24.7414V0.719225L220.165 0.359612V0H229.651V0.359612L227.531 0.719225V24.9212H233.46C234.035 24.9212 234.55 24.7653 235.005 24.4537C235.46 24.118 235.868 23.5906 236.227 22.8714C236.61 22.1282 236.97 21.1692 237.305 19.9945L238.239 15.4633H238.886L240 25.4606H220.165Z" fill="#1D1D1B"/>
</svg>
